# xmcd CD database file
#
# Track frame offsets:
#	225
#	43244
#	111753
#	141677
#	215815
#
# Disc length: 3200 seconds
#
# Revision: 0
# Processed by: cddbd v1.5.2PL0 Copyright (c) Steve Scherf et al.
# Submitted via: CDex 1.70beta3
#
DISCID=550c7d05
DTITLE=Kang Tae Hwan - Sorefa [CD1]
DYEAR=2011
DGENRE=Jazz
TTITLE0=20 Years Ago - part 1, 2
TTITLE1=??? - ??? - Sorefa - part 1, 2, 3
TTITLE2=Rain - part 1, 2
TTITLE3=Angel's Horn - part 1, 2, 3
TTITLE4=D♭ Overtone
EXTD=YEAR: 2011
EXTT0=
EXTT1=
EXTT2=
EXTT3=
EXTT4=
PLAYORDER=
